# xmcd
#
# Track frame offsets:
#	150
#	19451
#	31445
#	49150
#	61180
#	78009
#	90947
#	104076
#	118172
#	135613
#	151792
#	166549
#	179627
#	204238
#	227337
#	241911
#	256734
#
# Disc length: 3576 seconds
#
# Revision: 0
# Processed by: cddbd v1.4PL0 Copyright (c) Steve Scherf et al.
# Submitted via: dBpowerAMP V4.0
#
DISCID=cc0df611
DTITLE=Yoram Gaon - Haosef 2
DYEAR=1900
DGENRE=
TTITLE0=Shemesh ola
TTITLE1=Al kanaf hamangina
TTITLE2=Al kol ele
TTITLE3=Tango al haeer
TTITLE4=Shalom lach eretz nehederet
TTITLE5=Lo teda milhama
TTITLE6=kire halom
TTITLE7=Bet avi
TTITLE8=Hareut
TTITLE9=Layla shel prihot
TTITLE10=Etz halon
TTITLE11=Rak chiuch ehad
TTITLE12=Rachel
TTITLE13=Kmo hazav
TTITLE14=Shalechet Balev
TTITLE15=Hanaava
TTITLE16=Tni yadech Li
EXTD=
EXTT0=
EXTT1=
EXTT2=
EXTT3=
EXTT4=
EXTT5=
EXTT6=
EXTT7=
EXTT8=
EXTT9=
EXTT10=
EXTT11=
EXTT12=
EXTT13=
EXTT14=
EXTT15=
EXTT16=
PLAYORDER=
